<?xml version="1.0" encoding="iso-8859-1"?>
<!-- Generator: Adobe Illustrator 19.0.0, SVG Export Plug-In . SVG Version: 6.00 Build 0)  -->
<svg version="1.1" id="Capa_1" xmlns="http://www.w3.org/2000/svg" xmlns:xlink="http://www.w3.org/1999/xlink" x="0px" y="0px"
	 viewBox="0 0 387.461 387.461" style="enable-background:new 0 0 387.461 387.461;" xml:space="preserve">
<g>
	<g>
		<path d="M245.952,296.37c0-0.64,0-1.28,0-1.92V93.01c0-0.64,0-1.28,0-1.92c13.497-0.325,24.281-11.339,24.32-24.84h-0.04
			c-0.022-13.716-11.124-24.836-24.84-24.88h-2.92c-4.66-27.106-30.411-45.302-57.518-40.642
			c-20.787,3.574-37.069,19.855-40.642,40.642h-2.92c-13.736,0.374-24.568,11.812-24.194,25.548
			c0.354,12.994,10.651,23.526,23.634,24.172c0,0.64,0,1.28,0,1.92v201.44c0,0.64,0,1.28,0,1.92
			c-13.724,0.683-24.295,12.363-23.612,26.087c0.647,12.982,11.178,23.279,24.172,23.633h2.92
			c4.66,27.106,30.411,45.302,57.518,40.642c20.787-3.574,37.069-19.855,40.642-40.642h2.92
			c13.736-0.374,24.568-11.812,24.194-25.548C269.232,307.548,258.935,297.017,245.952,296.37z M170.152,26.61h0.08
			c12.847-12.834,33.665-12.824,46.499,0.023c4.077,4.081,7.009,9.164,8.501,14.737h-63.6
			C163.124,35.786,166.063,30.695,170.152,26.61z M133.392,66.13c0-4.418,3.582-8,8-8h104c4.417,0.104,7.913,3.769,7.809,8.186
			c-0.047,1.991-0.835,3.893-2.209,5.334l-0.04,0.16c-1.49,1.478-3.501,2.311-5.6,2.32h-103.96
			C136.974,74.13,133.392,70.549,133.392,66.13z M157.752,236.97v-29.92l71.28,71.32v16c0.059,0.639,0.059,1.281,0,1.92h-11.92
			L157.752,236.97z M193.032,296.37h-35.12c-0.059-0.639-0.059-1.281,0-1.92v-33.52L193.032,296.37z M229.032,150.49v29.96
			l-71.28-71.36v-16c-0.059-0.639-0.059-1.281,0-1.92h11.76L229.032,150.49z M193.592,91.09h35.28c0.059,0.639,0.059,1.281,0,1.92
			v33.52L193.592,91.09z M229.032,204.37v50.04l-71.28-71.32v-50.04L229.032,204.37z M216.712,360.85
			c-12.847,12.834-33.665,12.824-46.499-0.023c-4.077-4.081-7.009-9.164-8.501-14.737h63.44c-1.492,5.584-4.431,10.675-8.52,14.76
			H216.712z M250.841,326.923c-1.464,1.416-3.413,2.22-5.449,2.248h-104c-4.418,0-8-3.582-8-8s3.582-8,8-8h104
			c2.108,0.062,4.106,0.953,5.56,2.48l0.08-0.04C254.103,318.787,254.018,323.851,250.841,326.923z"/>
	</g>
</g>
<g>
</g>
<g>
</g>
<g>
</g>
<g>
</g>
<g>
</g>
<g>
</g>
<g>
</g>
<g>
</g>
<g>
</g>
<g>
</g>
<g>
</g>
<g>
</g>
<g>
</g>
<g>
</g>
<g>
</g>
</svg>
