<svg xmlns="http://www.w3.org/2000/svg" xmlns:xlink="http://www.w3.org/1999/xlink" version="1.1" x="0px" y="0px" viewBox="0 0 96 120" style="enable-background:new 0 0 96 96;" xml:space="preserve"><path d="M85.7,56.8c2.5-0.7,4.3-3,4.3-5.8c0-3.3-2.7-6-6-6h-4l-2-6c-3-9-12-9-12-9h-6H36h-6c0,0-9,0-12,9l-2,6h-4c-3.3,0-6,2.7-6,6  c0,2.7,1.8,5,4.3,5.8C7.7,59,6,62.3,6,66v12c0,1.7,1.1,3.1,3,4.3V93c0,1.7,1.3,3,3,3h9c1.7,0,3-1.3,3-3v-7c8.6,0.9,18.3,1,24,1  s15.4,0,24-1v7c0,1.7,1.3,3,3,3h9c1.7,0,3-1.3,3-3V82.3c1.9-1.1,3-2.5,3-4.3V66C90,62.3,88.3,59,85.7,56.8z M84,48c1.7,0,3,1.3,3,3  c0,1.7-1.3,3-3,3h-1l-2-6H84z M20.8,39.9c0.9-2.8,2.7-4.9,5.4-6.1c1-0.4,2.6-0.9,3.7-0.9h36c1.1,0,2.7,0.4,3.7,0.9  c2.7,1.2,4.5,3.3,5.4,6.1L79.8,54h-1.8h0h0h-3H21h-3h0h0h-1.8L20.8,39.9z M9,51c0-1.7,1.3-3,3-3h3l-2,6h-1C10.3,54,9,52.7,9,51z   M21,93h-9v-9.4c2.5,0.9,5.6,1.6,9,2V93z M84,93h-9v-7.3c3.4-0.5,6.5-1.1,9-2V93z M87,78c0,0.1,0,0.2,0,0.2  c-0.5,1.5-4.6,2.8-5.9,3.2c-4.5,1.2-9.7,1.8-14.4,2.1C60.4,83.9,54.2,84,48,84s-12.4-0.1-18.6-0.5c-4.7-0.3-9.9-0.8-14.4-2.1  c-1.3-0.4-5.5-1.7-5.9-3.2c0-0.1,0-0.2,0-0.2V66c0-5,4-9,9-9h3h54h3c5,0,9,4,9,9V78z M61.5,72h-27c-0.8,0-1.5,0.7-1.5,1.5  s0.7,1.5,1.5,1.5h27c0.8,0,1.5-0.7,1.5-1.5S62.3,72,61.5,72z M25.5,15h6c0.8,0,1.5-0.7,1.5-1.5S32.3,12,31.5,12h-6  c-0.8,0-1.5,0.7-1.5,1.5S24.7,15,25.5,15z M25.5,21h27.8c2.4,3.6,6.5,6,11.2,6c4.7,0,8.8-2.4,11.2-6h0.1v-0.1  c0.6-0.9,1.1-1.9,1.4-2.9h-1.4H74h-5c-1.7,0-3-1.3-3-3v-3c0-1.7,1.3-3,3-3h5h1.8h1.4c-0.4-1-0.9-2-1.4-2.9V6h-0.1  c-2.4-3.6-6.5-6-11.2-6c-4.7,0-8.8,2.4-11.2,6H25.5C21.4,6,18,9.4,18,13.5S21.4,21,25.5,21z M25.5,9h26.3h2.4H55  c1.7-3.5,5.3-6,9.5-6c2.9,0,5.5,1.1,7.3,3H69c-3.3,0-6,2.7-6,6v3c0,3.3,2.7,6,6,6h2.8c-1.9,1.9-4.5,3-7.3,3c-4.2,0-7.8-2.5-9.5-6  h-0.9h-2.4H25.5C23,18,21,16,21,13.5S23,9,25.5,9z M18,63c-3.3,0-6,2.7-6,6c0,3.3,2.7,6,6,6s6-2.7,6-6C24,65.7,21.3,63,18,63z   M18,72c-1.7,0-3-1.3-3-3c0-1.7,1.3-3,3-3s3,1.3,3,3C21,70.7,19.7,72,18,72z M78,63c-3.3,0-6,2.7-6,6c0,3.3,2.7,6,6,6s6-2.7,6-6  C84,65.7,81.3,63,78,63z M78,72c-1.7,0-3-1.3-3-3c0-1.7,1.3-3,3-3s3,1.3,3,3C81,70.7,79.7,72,78,72z M64.5,66h-33  c-0.8,0-1.5,0.7-1.5,1.5s0.7,1.5,1.5,1.5h33c0.8,0,1.5-0.7,1.5-1.5S65.3,66,64.5,66z"/></svg>