<svg xmlns="http://www.w3.org/2000/svg" data-name="Layer 1" viewBox="0 0 48 54" x="0px" y="0px"><title>Chinese decoration_expand</title><path d="M47.388,9.763l-8.2-3.45c-.023-.009-.048-.012-.071-.02s-.026-.014-.04-.019l-7.643-2.2V1a1,1,0,0,0-1-1H17.569a1,1,0,0,0-1,1V4.078l-7.643,2.2c-.014,0-.025.015-.04.019s-.048.011-.071.02l-8.2,3.45A1,1,0,0,0,0,10.685V47a1,1,0,0,0,1,1H47a1,1,0,0,0,1-1V10.685A1,1,0,0,0,47.388,9.763ZM46,40.693H39.8V8.74L46,11.349ZM37.8,46H25V39.019h2.19v-2H25V31.348h2.19v-2H25V23.676h2.19v-2H25V16.005h2.19v-2H25V10.067l5.627-4.139,7.17,2.06ZM18.569,2.893,23,5.915V7.584l-4.431-3.26ZM25,5.915l4.431-3.022V4.324L25,7.584ZM24,4.176,20.81,2h6.38ZM8.2,8.74V40.693H2V11.349ZM2,42.693H8.2V46H2Zm8.2-34.7,7.17-2.06L23,10.067v3.938H20.6v2H23v5.671H20.6v2H23v5.672H20.6v2H23v5.671H20.6v2H23V46H10.2ZM39.8,46V42.693H46V46Z"/></svg>