<svg xmlns="http://www.w3.org/2000/svg" xmlns:xlink="http://www.w3.org/1999/xlink" version="1.1" x="0px" y="0px" viewBox="0 0 91 91" enable-background="new 0 0 91 91" xml:space="preserve"><g><path d="M36.218,20.739L16.207,51.006c-1.743,1.581-3.339,3.318-4.69,5.273l-5.736,8.29c-4.348,6.295-3.518,14.435,1.932,18.94   l5.171,4.271c2.351,1.942,5.206,2.97,8.256,2.97c3.872,0,7.771-1.684,10.696-4.625l35.203-35.378   c0.943-0.947,1.461-1.858,1.717-2.685c5.02-0.216,11.369-2.094,15.249-6.168l0.465-0.483c1.47-1.519,2.989-3.09,2.924-5.275   c-0.038-1.347-0.704-2.623-1.975-3.794c-1.097-1.011-2.165-1.502-2.871-1.826c-0.002-0.002-0.006-0.004-0.008-0.004   c0.037-0.131,0.088-0.291,0.155-0.483c0.153-0.429,0.308-0.812,0.446-1.16c1.016-2.538,1.578-4.995-2.611-7.164   c-0.325-0.168-0.611-0.309-0.861-0.425c0.08-0.422,0.164-0.939,0.237-1.588c0.439-3.884-1.203-7.26-4.289-8.812   c-2.182-1.101-4.665-1.036-6.912,0.065c-0.056-2.538-0.484-5.236-1.781-7.182c-0.918-1.384-2.211-2.268-3.733-2.562   C59.587,0.503,57.313,3.01,55.81,4.67c-1.713,1.891-1.992,1.901-2.523,1.661C52.758,6.102,52.32,5.41,51.811,4.61   c-0.611-0.964-1.308-2.057-2.47-2.896c-3.181-2.304-6.882-2.025-9.9,0.741c-5.283,4.844-3.053,12.395-1.33,16.344   C37.478,19.227,36.836,19.833,36.218,20.739z M39.975,23.262c0.458-0.673,0.747-0.782,0.739-0.788   c1.326,0.164,4.821,6.235,5.846,16.862c-6.634,0.516-14.077,2.175-20.75,5.351L39.975,23.262z M60.798,27.07l3.97-4.006l2.284,2.12   l-4.328,5.646l-2.005,1.222C60.996,30.435,61.029,28.761,60.798,27.07z M57.306,39.516c0.079-0.096,0.163-0.19,0.243-0.289   c0.071-0.035,0.152-0.039,0.223-0.082l9.27-5.648l2.139,2.363l-7.682,4.428C60.113,39.934,58.679,39.688,57.306,39.516z    M51.084,39.051c-0.131-1.346-0.307-2.703-0.523-4.049c1.246-0.831,3.458-3.082,3.458-8.599c0-1.25-1.013-2.264-2.264-2.264   c-1.247,0-2.261,1.014-2.261,2.264c0,1.079-0.11,1.911-0.265,2.578c-0.416-1.463-0.89-2.854-1.428-4.117l0.753-6.646   c4.013,1.367,7.002,4.817,7.719,9.143C57.039,31.988,54.997,36.521,51.084,39.051z M63.83,47.555L28.628,82.931   c-2.083,2.094-4.811,3.293-7.488,3.293c-1.986,0-3.845-0.667-5.373-1.932l-5.171-4.27c-3.683-3.046-4.144-8.463-1.093-12.878   l5.736-8.29C22.99,47.646,39.445,43.67,51.183,43.67c8.849,0,13.022,2.128,13.268,2.999C64.446,46.739,64.322,47.061,63.83,47.555z    M73.586,14.922c1.344,0.677,2.044,2.31,1.822,4.26c-0.096,0.859-0.219,1.438-0.307,1.843c-0.501,2.386,0.374,3.291,2.169,4.125   c0.301,0.141,0.688,0.321,1.179,0.575c0.44,0.227,0.7,0.395,0.852,0.508c-0.084,0.259-0.233,0.636-0.362,0.955   c-0.157,0.395-0.332,0.833-0.505,1.322c-1.369,3.851,0.259,5.218,2.229,6.118c0.576,0.264,1.118,0.516,1.689,1.04   c0.401,0.37,0.501,0.581,0.518,0.581c-0.085,0.395-1.027,1.367-1.653,2.014l-0.489,0.51c-3.096,3.251-8.717,4.817-12.991,4.785   c-0.315-0.367-0.674-0.708-1.083-1.016l7.218-4.16c0.591-0.342,1-0.933,1.107-1.608c0.105-0.677-0.101-1.365-0.56-1.872   l-4.936-5.452l2.414-3.145c0.71-0.927,0.601-2.243-0.257-3.037l-4.063-3.771l0.182-0.532c0.46-1.381,0.74-2.214,1.661-3.074   C70.754,14.643,72.309,14.281,73.586,14.922z M42.498,5.793c1.889-1.727,3.294-1.058,4.19-0.409   c0.461,0.332,0.87,0.974,1.302,1.653c0.753,1.185,1.69,2.658,3.479,3.44c3.706,1.621,6.106-1.018,7.692-2.767   c1.438-1.583,2.188-2.259,3.169-2.064c0.234,0.045,0.513,0.156,0.827,0.626c1.285,1.932,1.254,6.937,0.487,10.727   c-0.062,0.178-0.121,0.354-0.181,0.532l-0.239,0.704c-0.041,0.037-0.092,0.049-0.131,0.09l-3.787,3.821   c-2.329-4.796-6.903-8.21-12.416-8.945c-0.603-0.079-1.208,0.086-1.692,0.459c-0.477,0.376-0.786,0.925-0.855,1.53l-0.448,3.948   c-0.292-0.229-0.594-0.422-0.902-0.587c-0.006-0.015-0.004-0.029-0.012-0.045C42.199,17.025,38.505,9.452,42.498,5.793z"/><path d="M45.134,54.532c-0.898,0.321-4.363-0.566-6.655-1.151c-5.144-1.318-10.468-2.684-13.575-0.285   c-0.952,0.734-2.089,2.146-2.108,4.719c-0.008,1.418,0.628,3.26,1.433,5.593c0.686,1.981,2.288,6.618,1.678,7.567   c-0.002,0.004-0.383,0.2-1.601-0.031c-1.236-0.229-2.413,0.575-2.644,1.806c-0.231,1.229,0.577,2.412,1.804,2.643   c0.667,0.126,1.29,0.188,1.869,0.188c1.705,0,3.035-0.541,3.963-1.619c2.403-2.783,0.706-7.696-0.792-12.032   c-0.501-1.45-1.189-3.44-1.185-4.082c0.004-0.602,0.121-0.992,0.344-1.165c1.358-1.05,6.574,0.284,9.691,1.083   c4.445,1.138,7.956,2.037,10.154,0.609c1.05-0.68,1.389-2.102,0.709-3.151C47.542,54.174,46.186,53.853,45.134,54.532z"/></g></svg>