<svg id="Layer_1" enable-background="new 0 0 512 512" height="512" viewBox="0 0 512 512" width="512" xmlns="http://www.w3.org/2000/svg"><path d="m390.018 252.785s.024-169.542.024-171.285c0-36.668-28.71-66.5-64-66.5-7.175 0-14.07 1.252-20.514 3.524-13.663-11.844-31.334-18.524-49.527-18.524-24.002 0-46.157 11.25-60.294 30.015-15.843-2.907-32.385.431-46.104 9.647-15.777 10.599-25.736 27.671-27.33 46.412-.19.954-.291 1.933-.291 2.926v163.784c-2.544 2.734-4.023 6.365-4.023 10.216v174c0 41.355 33.645 75 75 75h126.083c41.354 0 74.999-33.645 74.999-75v-174c0-3.851-1.479-7.481-4.023-10.215zm-41.737 12.323-22.584-14.684c-4.973-3.232-11.381-3.233-16.354 0l-22.583 14.684-22.584-14.684c-2.968-1.93-6.448-2.698-9.829-2.324 20.343-57.43 57.971-105.286 105.67-134.174v143.551zm-196.299-151.158c34.583 21.005 64.57 52.421 85.903 90.397.415.739.896 1.416 1.41 2.056-8.36 17.265-15.219 35.543-20.386 54.59l-16.253-10.568c-4.972-3.232-11.381-3.232-16.353 0l-22.584 14.684-11.737-7.631zm142.493 13.929c-14.329 14.471-27.228 30.706-38.423 48.377-11.284-17.882-24.166-34.116-38.431-48.51 9.514-11.132 23.482-17.746 38.379-17.746 14.889 0 28.946 6.681 38.475 17.879zm65.523-48.252c-15.277 7.799-29.754 17.246-43.261 28.132-6.778-7.783-14.954-14.149-24.017-18.816-.245-.126-.353-2.391-.384-2.639-2.483-20.148 12.169-41.304 33.706-41.304 18.163 0 33.045 15.368 33.956 34.627zm-193.666-15.063c9.158-6.15 20.214-7.309 30.335-3.175 7.163 2.924 15.373-.077 18.96-6.931 7.898-15.086 23.368-24.458 40.374-24.458 8.31 0 16.226 2.199 23.148 6.307-10.349 11.585-16.771 26.992-17.076 43.933-2.012-.153-4.037-.24-6.073-.24-23.496 0-45.524 10.298-60.659 27.659-12.979-10.414-26.848-19.475-41.478-27.078 2.25-6.444 6.522-12.022 12.469-16.017zm197.709 372.436c0 24.813-20.187 45-44.999 45h-126.083c-24.813 0-45-20.187-45-45v-146.355l7.583 4.931c4.973 3.232 11.381 3.232 16.353 0l22.584-14.684 22.584 14.684c4.972 3.232 11.381 3.232 16.353 0l22.584-14.684 22.584 14.684c4.973 3.232 11.381 3.233 16.353 0l22.583-14.684 22.584 14.684c4.973 3.232 11.381 3.233 16.354 0l7.583-4.931z"/></svg>