<svg xmlns="http://www.w3.org/2000/svg" xmlns:xlink="http://www.w3.org/1999/xlink" viewBox="0 0 52 59" version="1.1" x="0px" y="0px"><title>046 - Plats</title><desc>Created with Sketch.</desc><g stroke="none" stroke-width="1" fill="none" fill-rule="evenodd" stroke-linecap="round" stroke-linejoin="round"><g transform="translate(1.000000, 1.000000)" stroke="#000000" stroke-width="2"><path d="M25,57.4991322 C23.8986381,57.5009931 22.8096266,57.2671646 21.80611,56.8133408 C5.10984,49.2394982 6,27.5323806 6,27.5323806 C5.16141424,26.5508066 4.01015478,25.8882402 2.74015,25.65629 C1.98900412,25.6382016 1.32420402,26.1394888 1.135,26.8666404 C0.37655,28.9547711 1.22856,31.393782 1.96682,33.3615727 C2.51815,34.8311332 3.93015,38.2889044 6.04403,37.6191241 C6.40932348,37.4883817 6.73738718,37.2708541 7,36.9852539"/><path d="M25,57.4991322 C26.1013619,57.5009931 27.1903734,57.2671646 28.19389,56.8133408 C44.89016,49.2394982 44,27.5323806 44,27.5323806 C44.8385858,26.5508066 45.9898452,25.8882402 47.25985,25.65629 C48.0109959,25.6382016 48.675796,26.1394888 48.865,26.8666404 C49.62345,28.9547711 48.77144,31.393782 48.03318,33.3615727 C47.48185,34.8311332 46.06985,38.2889044 43.95597,37.6191241 C43.5906765,37.4883817 43.2626128,37.2708541 43,36.9852539"/><path d="M28,38.50267 C27.4146004,39.6445677 26.2792131,40.4014926 25,40.50267"/><path d="M25,40.50267 C23.7207869,40.4014926 22.5853996,39.6445677 22,38.50267"/><path d="M39.68386,24.42037 C39.68386,24.42037 35.33567,18.56732 27.93578,24.80437"/><path d="M36,29.08267 L36,32.00267 C36,33.3833819 34.8807119,34.50267 33.5,34.50267 C32.1192881,34.50267 31,33.3833819 31,32.00267 L31,29.07267"/><path d="M39,30.50267 C35.7107827,28.1498156 31.2892173,28.1498156 28,30.50267"/><path d="M34.02,8.18267 C46.83,11.93267 44,27.53267 44,27.53267"/><path d="M25,53.5026 C30.33333,53.5026 33,47.5026 33,47.5026 C33,47.5026 29.44445,44.5026 27.66667,44.5026 C26.6794001,44.463323 25.7180081,44.8238446 25,45.5026 C24.2819919,44.8238446 23.3205999,44.463323 22.33333,44.5026 C20.55555,44.5026 17,47.5026 17,47.5026 C17,47.5026 19.66667,53.5026 25,53.5026 Z"/><path d="M33,47.50267 C30.3885344,48.1843942 27.6989219,48.5205958 25,48.50267 C22.3010781,48.5205958 19.6114656,48.1843942 17,47.50267"/><path d="M30,9.50089 C29.2449144,8.79499986 28.3678802,8.23214602 27.41161,7.83974 C26.1823286,7.3690135 24.7999162,7.53550602 23.71755,8.28463861 C22.6351838,9.0337712 21.9924324,10.268945 22,11.58525 L21.9999339,31.50089"/><path d="M20,14.50089 L24,12.50089"/><path d="M20,18.50089 L24,16.50089"/><path d="M20,22.50089 L24,20.50089"/><path d="M20,26.50089 L24,24.50089"/><path d="M20,30.50089 L24,28.50089"/><path d="M22,4.20111 C21.26,3.49111 18.94,1.30111 17.65,0.78111 C16.421814,0.311067612 15.0408152,0.477136555 13.9590803,1.22495336 C12.8773453,1.97277016 12.2341322,3.20606394 12.24,4.52111 L12.2399602,24.44111"/><path d="M10.24,7.44111 L14.24,5.44111"/><path d="M10.24,11.44111 L14.24,9.44111"/><path d="M10.24,15.44111 L14.24,13.44111"/><path d="M10.24,19.44111 L14.24,17.44111"/><path d="M10.24,23.44111 L14.24,21.44111"/></g></g></svg>