<svg xmlns="http://www.w3.org/2000/svg" xmlns:xlink="http://www.w3.org/1999/xlink" version="1.1" x="0px" y="0px" viewBox="0 0 100 125" style="enable-background:new 0 0 100 100;" xml:space="preserve"><style type="text/css">
	.st0{fill:none;stroke:#000000;stroke-width:2;stroke-linecap:round;stroke-linejoin:round;stroke-miterlimit:10;}
	.st1{fill:none;stroke:#000000;stroke-width:1.8;stroke-linecap:round;stroke-linejoin:round;stroke-miterlimit:10;}
	.st2{fill:none;stroke:#000000;stroke-width:2;stroke-miterlimit:10;}
</style><path d="M89.125,74.193h-0.719V35.978c0-0.553-0.448-1-1-1h-2.425V13.71c0-2.031-1.652-3.684-3.683-3.684h-8.093  c-2.031,0-3.683,1.652-3.683,3.684v21.268h-2.425c-0.552,0-1,0.447-1,1v38.216H54.824v-2.798c5.593-2.631,9.172-8.225,9.172-14.432  c0-5.735-3.109-11.057-8.115-13.887c-1.101-0.622-1.832-1.777-1.99-3.091h0.331c0.552,0,1-0.447,1-1V20.925  c0-1.911-1.555-3.467-3.467-3.467h-7.441c-1.912,0-3.467,1.556-3.467,3.467v18.062c0,0.553,0.448,1,1,1h0.33  c-0.161,1.312-0.909,2.476-2.036,3.117c-5.376,3.064-8.453,8.806-8.029,14.983c0.389,5.671,3.948,10.819,9.133,13.294v2.812H28.635  v-22.42c0-0.553-0.448-1-1-1h-0.428V31.911c0-0.553-0.448-1-1-1h-0.593V16.354c0-1.026-0.508-1.981-1.36-2.555  c-0.851-0.572-1.927-0.684-2.786-0.33l-3.773,1.123c-1.719,0.698-2.83,2.35-2.83,4.205v12.113h-0.593c-0.552,0-1,0.447-1,1v18.862  h-0.428c-0.552,0-1,0.447-1,1v22.42h-0.719c-0.552,0-1,0.447-1,1v13.833c0,0.553,0.448,1,1,1h78c0.552,0,1-0.447,1-1V75.193  C90.125,74.641,89.677,74.193,89.125,74.193z M71.522,13.71c0-0.929,0.755-1.684,1.683-1.684h8.093c0.928,0,1.683,0.755,1.683,1.684  v21.268H71.522V13.71z M68.098,36.978h8.154v22.994c0,0.553,0.448,1,1,1s1-0.447,1-1V36.978h8.154v37.216H68.098V36.978z   M42.848,20.925c0-0.809,0.658-1.467,1.467-1.467h7.441c0.809,0,1.467,0.658,1.467,1.467v17.062H42.848V20.925z M42.638,69.815  c-4.829-2.061-8.177-6.718-8.53-11.865c-0.371-5.405,2.321-10.429,7.023-13.108c1.748-0.995,2.875-2.825,3.046-4.855h2.858v19.791  c0,0.553,0.448,1,1,1s1-0.447,1-1V39.986h2.857c0.169,2.037,1.281,3.858,3.006,4.832c4.378,2.476,7.099,7.13,7.099,12.146  c0,5.624-3.36,10.672-8.56,12.86c-0.371,0.156-0.612,0.52-0.612,0.922v3.447h-9.579v-3.458  C43.246,70.335,43.006,69.973,42.638,69.815z M16.865,18.798c0-1.038,0.621-1.961,1.49-2.319l3.773-1.123  c0.338-0.138,0.706-0.101,1.009,0.104c0.303,0.203,0.477,0.529,0.477,0.895v14.557h-6.749V18.798z M15.272,32.911h9.935v17.862  h-9.935V32.911z M13.844,52.773h12.791v21.42H13.844V52.773z M88.125,88.026h-76V76.193h76V88.026z"/></svg>